<svg width="1182" height="300" viewBox="0 0 1182 300" fill="none" xmlns="http://www.w3.org/2000/svg">
<line x1="590.213" y1="9.22449" x2="590.213" y2="538.479" stroke="url(#paint0_linear_13_106)" stroke-width="2" stroke-dasharray="4 4"/>
<path d="M0.00485602 47.9393L1181.78 47.9393V42.9393L0.00485602 42.9393L0.00485602 47.9393ZM0.00485602 504.223L1181.78 504.223V499.223L0.00485602 499.223L0.00485602 504.223ZM1117.38 542.185V4.61214H1112.38V542.185H1117.38ZM60.9485 542.185L60.9485 4.61214H55.9485L55.9485 542.185H60.9485ZM418.794 542.186V4.61453H413.794V542.186H418.794ZM0 276.058H416.284V271.058H0L0 276.058ZM768.617 542.185V4.61214H763.617V542.185H768.617ZM766.117 276.058L1181.78 276.058V271.058L766.117 271.058V276.058Z" fill="url(#paint1_linear_13_106)"/>
<rect x="3.5" y="8.11224" width="1174.89" height="530.326" rx="11.5" stroke="url(#paint2_linear_13_106)" stroke-width="7"/>
<circle cx="590.366" cy="9.22447" r="9.22447" fill="#00BEE8"/>
<defs>
<linearGradient id="paint0_linear_13_106" x1="589.213" y1="273.852" x2="588.213" y2="273.852" gradientUnits="userSpaceOnUse">
<stop stop-color="#00BEE8"/>
<stop offset="1" stop-color="#3BCFFE"/>
</linearGradient>
<linearGradient id="paint1_linear_13_106" x1="0" y1="273.399" x2="1181.78" y2="273.399" gradientUnits="userSpaceOnUse">
<stop stop-color="#00BEE8"/>
<stop offset="1" stop-color="#3BCFFE"/>
</linearGradient>
<linearGradient id="paint2_linear_13_106" x1="590.943" y1="4.61224" x2="590.943" y2="541.938" gradientUnits="userSpaceOnUse">
<stop stop-color="#00BEE8"/>
<stop offset="1" stop-color="#3BCFFE"/>
</linearGradient>
</defs>
</svg>
