<svg width="694" height="322" viewBox="0 0 694 322" fill="none" xmlns="http://www.w3.org/2000/svg">
<path d="M0.00284844 29.1537H693.209V24.1537H0.00284844L0.00284844 29.1537ZM0.00284844 296.8H693.209V291.8H0.00284844L0.00284844 296.8ZM656.465 318.034V2.70532H651.465V318.034H656.465ZM36.7847 318.034L36.7847 2.70532H31.7847L31.7847 318.034H36.7847ZM246.689 318.035V2.70673H241.689V318.035H246.689ZM0 162.963H244.183V157.963H0L0 162.963ZM451.887 318.034V2.70532H446.887V318.034H451.887ZM449.387 162.963L693.209 162.963V157.963L449.387 157.963V162.963Z" fill="url(#paint0_linear_85_3)"/>
<rect x="3.5" y="6.20547" width="686.269" height="308.184" rx="11.5" stroke="url(#paint1_linear_85_3)" stroke-width="7"/>
<circle cx="346.296" cy="5.41088" r="4.91088" fill="#D71A00" stroke="url(#paint2_linear_85_3)"/>
<circle cx="346.296" cy="315.86" r="4.91088" fill="#FE813B" stroke="url(#paint3_linear_85_3)"/>
<path d="M290.14 167.6H298.024V173H283.084V147.62H290.14V167.6ZM323.859 159.968C325.347 160.304 326.523 161.048 327.387 162.2C328.275 163.328 328.719 164.624 328.719 166.088C328.719 168.248 327.975 169.94 326.487 171.164C324.999 172.388 322.911 173 320.223 173H307.659V147.62H319.827C322.419 147.62 324.447 148.196 325.911 149.348C327.399 150.5 328.143 152.12 328.143 154.208C328.143 155.696 327.747 156.944 326.955 157.952C326.187 158.936 325.155 159.608 323.859 159.968ZM314.715 157.7H318.279C320.055 157.7 320.943 156.968 320.943 155.504C320.943 153.992 320.055 153.236 318.279 153.236H314.715V157.7ZM318.819 167.312C320.595 167.312 321.483 166.568 321.483 165.08C321.483 164.312 321.243 163.724 320.763 163.316C320.307 162.908 319.647 162.704 318.783 162.704H314.715V167.312H318.819ZM338.867 146.36V173H331.811V146.36H338.867ZM352.281 173.252C350.265 173.252 348.453 172.832 346.845 171.992C345.261 171.152 344.013 169.952 343.101 168.392C342.189 166.832 341.733 164.996 341.733 162.884C341.733 160.796 342.189 158.972 343.101 157.412C344.037 155.852 345.297 154.652 346.881 153.812C348.489 152.972 350.301 152.552 352.317 152.552C354.333 152.552 356.133 152.972 357.717 153.812C359.325 154.652 360.585 155.852 361.497 157.412C362.433 158.972 362.901 160.796 362.901 162.884C362.901 164.972 362.433 166.808 361.497 168.392C360.585 169.952 359.325 171.152 357.717 171.992C356.109 172.832 354.297 173.252 352.281 173.252ZM352.281 167.132C353.265 167.132 354.081 166.772 354.729 166.052C355.401 165.308 355.737 164.252 355.737 162.884C355.737 161.516 355.401 160.472 354.729 159.752C354.081 159.032 353.277 158.672 352.317 158.672C351.357 158.672 350.553 159.032 349.905 159.752C349.257 160.472 348.933 161.516 348.933 162.884C348.933 164.276 349.245 165.332 349.869 166.052C350.493 166.772 351.297 167.132 352.281 167.132ZM364.62 162.884C364.62 160.796 365.052 158.972 365.916 157.412C366.78 155.852 367.98 154.652 369.516 153.812C371.076 152.972 372.852 152.552 374.844 152.552C377.412 152.552 379.572 153.26 381.324 154.676C383.076 156.068 384.204 158.024 384.708 160.544H377.22C376.788 159.224 375.948 158.564 374.7 158.564C373.812 158.564 373.104 158.936 372.576 159.68C372.072 160.4 371.82 161.468 371.82 162.884C371.82 164.3 372.072 165.38 372.576 166.124C373.104 166.868 373.812 167.24 374.7 167.24C375.972 167.24 376.812 166.58 377.22 165.26H384.708C384.204 167.756 383.076 169.712 381.324 171.128C379.572 172.544 377.412 173.252 374.844 173.252C372.852 173.252 371.076 172.832 369.516 171.992C367.98 171.152 366.78 169.952 365.916 168.392C365.052 166.832 364.62 164.996 364.62 162.884ZM400.275 173L394.695 164.72V173H387.639V146.36H394.695V160.724L400.275 152.804H408.735L400.779 162.956L408.879 173H400.275Z" fill="url(#paint4_linear_85_3)"/>
<path d="M309.436 184.63C310.026 184.74 310.511 185.035 310.891 185.515C311.271 185.995 311.461 186.545 311.461 187.165C311.461 187.725 311.321 188.22 311.041 188.65C310.771 189.07 310.376 189.4 309.856 189.64C309.336 189.88 308.721 190 308.011 190H303.496V179.53H307.816C308.526 179.53 309.136 179.645 309.646 179.875C310.166 180.105 310.556 180.425 310.816 180.835C311.086 181.245 311.221 181.71 311.221 182.23C311.221 182.84 311.056 183.35 310.726 183.76C310.406 184.17 309.976 184.46 309.436 184.63ZM305.596 183.85H307.516C308.016 183.85 308.401 183.74 308.671 183.52C308.941 183.29 309.076 182.965 309.076 182.545C309.076 182.125 308.941 181.8 308.671 181.57C308.401 181.34 308.016 181.225 307.516 181.225H305.596V183.85ZM307.711 188.29C308.221 188.29 308.616 188.17 308.896 187.93C309.186 187.69 309.331 187.35 309.331 186.91C309.331 186.46 309.181 186.11 308.881 185.86C308.581 185.6 308.176 185.47 307.666 185.47H305.596V188.29H307.711ZM312.595 185.815C312.595 184.975 312.76 184.23 313.09 183.58C313.43 182.93 313.885 182.43 314.455 182.08C315.035 181.73 315.68 181.555 316.39 181.555C317.01 181.555 317.55 181.68 318.01 181.93C318.48 182.18 318.855 182.495 319.135 182.875V181.69H321.25V190H319.135V188.785C318.865 189.175 318.49 189.5 318.01 189.76C317.54 190.01 316.995 190.135 316.375 190.135C315.675 190.135 315.035 189.955 314.455 189.595C313.885 189.235 313.43 188.73 313.09 188.08C312.76 187.42 312.595 186.665 312.595 185.815ZM319.135 185.845C319.135 185.335 319.035 184.9 318.835 184.54C318.635 184.17 318.365 183.89 318.025 183.7C317.685 183.5 317.32 183.4 316.93 183.4C316.54 183.4 316.18 183.495 315.85 183.685C315.52 183.875 315.25 184.155 315.04 184.525C314.84 184.885 314.74 185.315 314.74 185.815C314.74 186.315 314.84 186.755 315.04 187.135C315.25 187.505 315.52 187.79 315.85 187.99C316.19 188.19 316.55 188.29 316.93 188.29C317.32 188.29 317.685 188.195 318.025 188.005C318.365 187.805 318.635 187.525 318.835 187.165C319.035 186.795 319.135 186.355 319.135 185.845ZM322.761 185.815C322.761 184.975 322.926 184.23 323.256 183.58C323.596 182.93 324.056 182.43 324.636 182.08C325.216 181.73 325.861 181.555 326.571 181.555C327.111 181.555 327.626 181.675 328.116 181.915C328.606 182.145 328.996 182.455 329.286 182.845V178.9H331.416V190H329.286V188.77C329.026 189.18 328.661 189.51 328.191 189.76C327.721 190.01 327.176 190.135 326.556 190.135C325.856 190.135 325.216 189.955 324.636 189.595C324.056 189.235 323.596 188.73 323.256 188.08C322.926 187.42 322.761 186.665 322.761 185.815ZM329.301 185.845C329.301 185.335 329.201 184.9 329.001 184.54C328.801 184.17 328.531 183.89 328.191 183.7C327.851 183.5 327.486 183.4 327.096 183.4C326.706 183.4 326.346 183.495 326.016 183.685C325.686 183.875 325.416 184.155 325.206 184.525C325.006 184.885 324.906 185.315 324.906 185.815C324.906 186.315 325.006 186.755 325.206 187.135C325.416 187.505 325.686 187.79 326.016 187.99C326.356 188.19 326.716 188.29 327.096 188.29C327.486 188.29 327.851 188.195 328.191 188.005C328.531 187.805 328.801 187.525 329.001 187.165C329.201 186.795 329.301 186.355 329.301 185.845ZM343.787 181.57C344.807 181.57 345.627 181.885 346.247 182.515C346.877 183.135 347.192 184.005 347.192 185.125V190H345.092V185.41C345.092 184.76 344.927 184.265 344.597 183.925C344.267 183.575 343.817 183.4 343.247 183.4C342.677 183.4 342.222 183.575 341.882 183.925C341.552 184.265 341.387 184.76 341.387 185.41V190H339.287V185.41C339.287 184.76 339.122 184.265 338.792 183.925C338.462 183.575 338.012 183.4 337.442 183.4C336.862 183.4 336.402 183.575 336.062 183.925C335.732 184.265 335.567 184.76 335.567 185.41V190H333.467V181.69H335.567V182.695C335.837 182.345 336.182 182.07 336.602 181.87C337.032 181.67 337.502 181.57 338.012 181.57C338.662 181.57 339.242 181.71 339.752 181.99C340.262 182.26 340.657 182.65 340.937 183.16C341.207 182.68 341.597 182.295 342.107 182.005C342.627 181.715 343.187 181.57 343.787 181.57ZM350.249 180.7C349.879 180.7 349.569 180.585 349.319 180.355C349.079 180.115 348.959 179.82 348.959 179.47C348.959 179.12 349.079 178.83 349.319 178.6C349.569 178.36 349.879 178.24 350.249 178.24C350.619 178.24 350.924 178.36 351.164 178.6C351.414 178.83 351.539 179.12 351.539 179.47C351.539 179.82 351.414 180.115 351.164 180.355C350.924 180.585 350.619 180.7 350.249 180.7ZM351.284 181.69V190H349.184V181.69H351.284ZM357.964 181.57C358.954 181.57 359.754 181.885 360.364 182.515C360.974 183.135 361.279 184.005 361.279 185.125V190H359.179V185.41C359.179 184.75 359.014 184.245 358.684 183.895C358.354 183.535 357.904 183.355 357.334 183.355C356.754 183.355 356.294 183.535 355.954 183.895C355.624 184.245 355.459 184.75 355.459 185.41V190H353.359V181.69H355.459V182.725C355.739 182.365 356.094 182.085 356.524 181.885C356.964 181.675 357.444 181.57 357.964 181.57ZM365.721 183.415V187.435C365.721 187.715 365.786 187.92 365.916 188.05C366.056 188.17 366.286 188.23 366.606 188.23H367.581V190H366.261C364.491 190 363.606 189.14 363.606 187.42V183.415H362.616V181.69H363.606V179.635H365.721V181.69H367.581V183.415H365.721ZM372.782 190.135C371.982 190.135 371.262 189.96 370.622 189.61C369.982 189.25 369.477 188.745 369.107 188.095C368.747 187.445 368.567 186.695 368.567 185.845C368.567 184.995 368.752 184.245 369.122 183.595C369.502 182.945 370.017 182.445 370.667 182.095C371.317 181.735 372.042 181.555 372.842 181.555C373.642 181.555 374.367 181.735 375.017 182.095C375.667 182.445 376.177 182.945 376.547 183.595C376.927 184.245 377.117 184.995 377.117 185.845C377.117 186.695 376.922 187.445 376.532 188.095C376.152 188.745 375.632 189.25 374.972 189.61C374.322 189.96 373.592 190.135 372.782 190.135ZM372.782 188.305C373.162 188.305 373.517 188.215 373.847 188.035C374.187 187.845 374.457 187.565 374.657 187.195C374.857 186.825 374.957 186.375 374.957 185.845C374.957 185.055 374.747 184.45 374.327 184.03C373.917 183.6 373.412 183.385 372.812 183.385C372.212 183.385 371.707 183.6 371.297 184.03C370.897 184.45 370.697 185.055 370.697 185.845C370.697 186.635 370.892 187.245 371.282 187.675C371.682 188.095 372.182 188.305 372.782 188.305ZM383.262 181.57C384.252 181.57 385.052 181.885 385.662 182.515C386.272 183.135 386.577 184.005 386.577 185.125V190H384.477V185.41C384.477 184.75 384.312 184.245 383.982 183.895C383.652 183.535 383.202 183.355 382.632 183.355C382.052 183.355 381.592 183.535 381.252 183.895C380.922 184.245 380.757 184.75 380.757 185.41V190H378.657V181.69H380.757V182.725C381.037 182.365 381.392 182.085 381.822 181.885C382.262 181.675 382.742 181.57 383.262 181.57Z" fill="url(#paint5_linear_85_3)"/>
<defs>
<linearGradient id="paint0_linear_85_3" x1="0" y1="160.37" x2="693.209" y2="160.37" gradientUnits="userSpaceOnUse">
<stop stop-color="#D71A00"/>
<stop offset="1" stop-color="#FE813B"/>
</linearGradient>
<linearGradient id="paint1_linear_85_3" x1="346.634" y1="2.70547" x2="346.634" y2="317.889" gradientUnits="userSpaceOnUse">
<stop stop-color="#D71A00"/>
<stop offset="1" stop-color="#FE813B"/>
</linearGradient>
<linearGradient id="paint2_linear_85_3" x1="346.296" y1="0" x2="346.296" y2="10.8218" gradientUnits="userSpaceOnUse">
<stop stop-color="#D71A00"/>
<stop offset="1" stop-color="#FE813B"/>
</linearGradient>
<linearGradient id="paint3_linear_85_3" x1="346.296" y1="310.449" x2="346.296" y2="321.271" gradientUnits="userSpaceOnUse">
<stop stop-color="#D71A00"/>
<stop offset="1" stop-color="#FE813B"/>
</linearGradient>
<linearGradient id="paint4_linear_85_3" x1="345" y1="133" x2="345" y2="187" gradientUnits="userSpaceOnUse">
<stop stop-color="#D71A00"/>
<stop offset="1" stop-color="#FE813B"/>
</linearGradient>
<linearGradient id="paint5_linear_85_3" x1="345" y1="173" x2="345" y2="196" gradientUnits="userSpaceOnUse">
<stop stop-color="#D71A00"/>
<stop offset="1" stop-color="#FE813B"/>
</linearGradient>
</defs>
</svg>
