<svg width="244" height="33" viewBox="0 0 244 33" fill="none" xmlns="http://www.w3.org/2000/svg">
<path d="M0 16.454C0 13.2674 0.669281 10.4331 2.00784 7.95125C3.34641 5.43872 5.20552 3.49304 7.58519 2.11421C9.9946 0.704735 12.7163 0 15.7504 0C19.4686 0 22.6514 1.01114 25.2988 3.03343C27.9462 5.05571 29.7161 7.81337 30.6085 11.3064H22.2201C21.5955 9.95822 20.7031 8.93176 19.543 8.22702C18.4127 7.52228 17.1187 7.16992 15.6612 7.16992C13.3113 7.16992 11.4075 8.01254 9.94998 9.69777C8.49243 11.383 7.76366 13.6351 7.76366 16.454C7.76366 19.273 8.49243 21.5251 9.94998 23.2103C11.4075 24.8955 13.3113 25.7382 15.6612 25.7382C17.1187 25.7382 18.4127 25.3858 19.543 24.6811C20.7031 23.9763 21.5955 22.9499 22.2201 21.6017H30.6085C29.7161 25.0947 27.9462 27.8524 25.2988 29.8747C22.6514 31.8663 19.4686 32.8621 15.7504 32.8621C12.7163 32.8621 9.9946 32.1727 7.58519 30.7939C5.20552 29.3844 3.34641 27.4387 2.00784 24.9568C0.669281 22.4749 0 19.6407 0 16.454Z" fill="black"/>
<path d="M46.614 33C44.1749 33 41.9737 32.4638 40.0105 31.3914C38.077 30.3189 36.5451 28.7869 35.4147 26.7953C34.3141 24.8036 33.7638 22.4749 33.7638 19.8092C33.7638 17.1741 34.329 14.8607 35.4593 12.8691C36.5897 10.8468 38.1365 9.29944 40.0997 8.22702C42.0629 7.1546 44.2641 6.61838 46.7033 6.61838C49.1424 6.61838 51.3436 7.1546 53.3068 8.22702C55.2701 9.29944 56.8169 10.8468 57.9472 12.8691C59.0775 14.8607 59.6427 17.1741 59.6427 19.8092C59.6427 22.4443 59.0627 24.773 57.9026 26.7953C56.7722 28.7869 55.2106 30.3189 53.2176 31.3914C51.2544 32.4638 49.0532 33 46.614 33ZM46.614 26.1978C48.0716 26.1978 49.306 25.6462 50.3174 24.5432C51.3585 23.4401 51.879 21.8621 51.879 19.8092C51.879 17.7563 51.3734 16.1783 50.362 15.0752C49.3804 13.9721 48.1608 13.4206 46.7033 13.4206C45.216 13.4206 43.9815 13.9721 42.9999 15.0752C42.0183 16.1476 41.5275 17.7256 41.5275 19.8092C41.5275 21.8621 42.0034 23.4401 42.9553 24.5432C43.9369 25.6462 45.1565 26.1978 46.614 26.1978Z" fill="black"/>
<path d="M88.2754 6.98607V32.6323H80.6456V29.1393C79.8722 30.273 78.8162 31.1922 77.4777 31.8969C76.1688 32.571 74.7113 32.9081 73.105 32.9081C71.2013 32.9081 69.5206 32.4791 68.0631 31.6212C66.6056 30.7326 65.4752 29.461 64.6721 27.8064C63.8689 26.1518 63.4674 24.2061 63.4674 21.9694V6.98607H71.0526V20.9123C71.0526 22.6281 71.4839 23.961 72.3465 24.9109C73.2091 25.8607 74.3692 26.3357 75.8268 26.3357C77.314 26.3357 78.489 25.8607 79.3516 24.9109C80.2143 23.961 80.6456 22.6281 80.6456 20.9123V6.98607H88.2754Z" fill="black"/>
<path d="M101.386 11.2604C102.278 9.85097 103.393 8.74791 104.732 7.95125C106.071 7.12396 107.558 6.71031 109.194 6.71031V15.0292H107.097C105.193 15.0292 103.765 15.4582 102.813 16.3162C101.862 17.1435 101.386 18.6142 101.386 20.7284V32.6323H93.7558V6.98607H101.386V11.2604Z" fill="black"/>
<path d="M126.717 25.968V32.6323H122.835C120.069 32.6323 117.912 31.9429 116.366 30.5641C114.819 29.1546 114.045 26.8719 114.045 23.7159V13.5125H111.011V6.98607H114.045V0.735377H121.675V6.98607H126.673V13.5125H121.675V23.8078C121.675 24.5738 121.854 25.1253 122.211 25.4624C122.568 25.7994 123.163 25.968 123.995 25.968H126.717Z" fill="black"/>
<path d="M167.551 0.367689V32.6323H159.921V19.3496H148.052V32.6323H140.422V0.367689H148.052V13.007H159.921V0.367689H167.551Z" fill="url(#paint0_linear_13_104)"/>
<path d="M196.528 19.3955C196.528 20.1309 196.483 20.8969 196.394 21.6936H179.127C179.246 23.2869 179.737 24.5125 180.599 25.3705C181.492 26.1978 182.577 26.6114 183.856 26.6114C185.76 26.6114 187.084 25.7841 187.827 24.1295H195.948C195.532 25.8148 194.773 27.3315 193.673 28.6797C192.602 30.0279 191.248 31.085 189.612 31.851C187.976 32.617 186.147 33 184.124 33C181.685 33 179.514 32.4638 177.61 31.3914C175.706 30.3189 174.219 28.7869 173.148 26.7953C172.077 24.8036 171.542 22.4749 171.542 19.8092C171.542 17.1435 172.062 14.8148 173.103 12.8231C174.174 10.8315 175.661 9.29944 177.565 8.22702C179.469 7.1546 181.655 6.61838 184.124 6.61838C186.534 6.61838 188.675 7.13928 190.549 8.18106C192.423 9.22284 193.881 10.7089 194.922 12.6393C195.993 14.5696 196.528 16.8217 196.528 19.3955ZM188.72 17.3273C188.72 15.9791 188.274 14.9067 187.381 14.11C186.489 13.3134 185.373 12.915 184.035 12.915C182.756 12.915 181.67 13.2981 180.778 14.0641C179.915 14.8301 179.38 15.9178 179.171 17.3273H188.72Z" fill="url(#paint1_linear_13_104)"/>
<path d="M208.183 11.2604C209.075 9.85097 210.191 8.74791 211.529 7.95125C212.868 7.12396 214.355 6.71031 215.991 6.71031V15.0292H213.894C211.99 15.0292 210.563 15.4582 209.611 16.3162C208.659 17.1435 208.183 18.6142 208.183 20.7284V32.6323H200.553V6.98607H208.183V11.2604Z" fill="url(#paint2_linear_13_104)"/>
<path d="M230.971 33C228.532 33 226.331 32.4638 224.368 31.3914C222.434 30.3189 220.902 28.7869 219.772 26.7953C218.671 24.8036 218.121 22.4749 218.121 19.8092C218.121 17.1741 218.686 14.8607 219.817 12.8691C220.947 10.8468 222.494 9.29944 224.457 8.22702C226.42 7.1546 228.621 6.61838 231.061 6.61838C233.5 6.61838 235.701 7.1546 237.664 8.22702C239.627 9.29944 241.174 10.8468 242.305 12.8691C243.435 14.8607 244 17.1741 244 19.8092C244 22.4443 243.42 24.773 242.26 26.7953C241.13 28.7869 239.568 30.3189 237.575 31.3914C235.612 32.4638 233.41 33 230.971 33ZM230.971 26.1978C232.429 26.1978 233.663 25.6462 234.675 24.5432C235.716 23.4401 236.236 21.8621 236.236 19.8092C236.236 17.7563 235.731 16.1783 234.719 15.0752C233.738 13.9721 232.518 13.4206 231.061 13.4206C229.573 13.4206 228.339 13.9721 227.357 15.0752C226.376 16.1476 225.885 17.7256 225.885 19.8092C225.885 21.8621 226.361 23.4401 227.313 24.5432C228.294 25.6462 229.514 26.1978 230.971 26.1978Z" fill="url(#paint3_linear_13_104)"/>
<defs>
<linearGradient id="paint0_linear_13_104" x1="122" y1="0" x2="122" y2="33" gradientUnits="userSpaceOnUse">
<stop stop-color="#00BEE8"/>
<stop offset="1" stop-color="#3BCFFE"/>
</linearGradient>
<linearGradient id="paint1_linear_13_104" x1="122" y1="0" x2="122" y2="33" gradientUnits="userSpaceOnUse">
<stop stop-color="#00BEE8"/>
<stop offset="1" stop-color="#3BCFFE"/>
</linearGradient>
<linearGradient id="paint2_linear_13_104" x1="122" y1="0" x2="122" y2="33" gradientUnits="userSpaceOnUse">
<stop stop-color="#00BEE8"/>
<stop offset="1" stop-color="#3BCFFE"/>
</linearGradient>
<linearGradient id="paint3_linear_13_104" x1="122" y1="0" x2="122" y2="33" gradientUnits="userSpaceOnUse">
<stop stop-color="#00BEE8"/>
<stop offset="1" stop-color="#3BCFFE"/>
</linearGradient>
</defs>
</svg>
