<svg width="694" height="322" viewBox="0 0 694 322" fill="none" xmlns="http://www.w3.org/2000/svg">
<path d="M0.00284844 29.1537H693.209V24.1537H0.00284844L0.00284844 29.1537ZM0.00284844 296.8H693.209V291.8H0.00284844L0.00284844 296.8ZM656.465 318.034V2.70532H651.465V318.034H656.465ZM36.7847 318.034L36.7847 2.70532H31.7847L31.7847 318.034H36.7847ZM246.689 318.035V2.70673H241.689V318.035H246.689ZM0 162.963H244.183V157.963H0L0 162.963ZM451.887 318.034V2.70532H446.887V318.034H451.887ZM449.387 162.963L693.209 162.963V157.963L449.387 157.963V162.963Z" fill="url(#paint0_linear_85_4)"/>
<rect x="3.5" y="6.20547" width="686.269" height="308.184" rx="11.5" stroke="url(#paint1_linear_85_4)" stroke-width="7"/>
<circle cx="346.296" cy="5.41088" r="4.91088" fill="#7D7D7D" stroke="url(#paint2_linear_85_4)"/>
<circle cx="346.296" cy="315.86" r="4.91088" fill="#373737" stroke="url(#paint3_linear_85_4)"/>
<path d="M304.732 147.62V173H297.676V158.996L292.888 173H286.984L282.16 158.888V173H275.104V147.62H283.636L290.008 164.108L296.236 147.62H304.732ZM331.839 159.968C333.327 160.304 334.503 161.048 335.367 162.2C336.255 163.328 336.699 164.624 336.699 166.088C336.699 168.248 335.955 169.94 334.467 171.164C332.979 172.388 330.891 173 328.203 173H315.639V147.62H327.807C330.399 147.62 332.427 148.196 333.891 149.348C335.379 150.5 336.123 152.12 336.123 154.208C336.123 155.696 335.727 156.944 334.935 157.952C334.167 158.936 333.135 159.608 331.839 159.968ZM322.695 157.7H326.259C328.035 157.7 328.923 156.968 328.923 155.504C328.923 153.992 328.035 153.236 326.259 153.236H322.695V157.7ZM326.799 167.312C328.575 167.312 329.463 166.568 329.463 165.08C329.463 164.312 329.223 163.724 328.743 163.316C328.287 162.908 327.627 162.704 326.763 162.704H322.695V167.312H326.799ZM346.847 146.36V173H339.791V146.36H346.847ZM360.262 173.252C358.246 173.252 356.434 172.832 354.826 171.992C353.242 171.152 351.994 169.952 351.082 168.392C350.17 166.832 349.714 164.996 349.714 162.884C349.714 160.796 350.17 158.972 351.082 157.412C352.018 155.852 353.278 154.652 354.862 153.812C356.47 152.972 358.282 152.552 360.298 152.552C362.314 152.552 364.114 152.972 365.698 153.812C367.306 154.652 368.566 155.852 369.478 157.412C370.414 158.972 370.882 160.796 370.882 162.884C370.882 164.972 370.414 166.808 369.478 168.392C368.566 169.952 367.306 171.152 365.698 171.992C364.09 172.832 362.278 173.252 360.262 173.252ZM360.262 167.132C361.246 167.132 362.062 166.772 362.71 166.052C363.382 165.308 363.718 164.252 363.718 162.884C363.718 161.516 363.382 160.472 362.71 159.752C362.062 159.032 361.258 158.672 360.298 158.672C359.338 158.672 358.534 159.032 357.886 159.752C357.238 160.472 356.914 161.516 356.914 162.884C356.914 164.276 357.226 165.332 357.85 166.052C358.474 166.772 359.278 167.132 360.262 167.132ZM372.6 162.884C372.6 160.796 373.032 158.972 373.896 157.412C374.76 155.852 375.96 154.652 377.496 153.812C379.056 152.972 380.832 152.552 382.824 152.552C385.392 152.552 387.552 153.26 389.304 154.676C391.056 156.068 392.184 158.024 392.688 160.544H385.2C384.768 159.224 383.928 158.564 382.68 158.564C381.792 158.564 381.084 158.936 380.556 159.68C380.052 160.4 379.8 161.468 379.8 162.884C379.8 164.3 380.052 165.38 380.556 166.124C381.084 166.868 381.792 167.24 382.68 167.24C383.952 167.24 384.792 166.58 385.2 165.26H392.688C392.184 167.756 391.056 169.712 389.304 171.128C387.552 172.544 385.392 173.252 382.824 173.252C380.832 173.252 379.056 172.832 377.496 171.992C375.96 171.152 374.76 169.952 373.896 168.392C373.032 166.832 372.6 164.996 372.6 162.884ZM408.256 173L402.676 164.72V173H395.62V146.36H402.676V160.724L408.256 152.804H416.716L408.76 162.956L416.86 173H408.256Z" fill="url(#paint4_linear_85_4)"/>
<path d="M309.436 184.63C310.026 184.74 310.511 185.035 310.891 185.515C311.271 185.995 311.461 186.545 311.461 187.165C311.461 187.725 311.321 188.22 311.041 188.65C310.771 189.07 310.376 189.4 309.856 189.64C309.336 189.88 308.721 190 308.011 190H303.496V179.53H307.816C308.526 179.53 309.136 179.645 309.646 179.875C310.166 180.105 310.556 180.425 310.816 180.835C311.086 181.245 311.221 181.71 311.221 182.23C311.221 182.84 311.056 183.35 310.726 183.76C310.406 184.17 309.976 184.46 309.436 184.63ZM305.596 183.85H307.516C308.016 183.85 308.401 183.74 308.671 183.52C308.941 183.29 309.076 182.965 309.076 182.545C309.076 182.125 308.941 181.8 308.671 181.57C308.401 181.34 308.016 181.225 307.516 181.225H305.596V183.85ZM307.711 188.29C308.221 188.29 308.616 188.17 308.896 187.93C309.186 187.69 309.331 187.35 309.331 186.91C309.331 186.46 309.181 186.11 308.881 185.86C308.581 185.6 308.176 185.47 307.666 185.47H305.596V188.29H307.711ZM312.595 185.815C312.595 184.975 312.76 184.23 313.09 183.58C313.43 182.93 313.885 182.43 314.455 182.08C315.035 181.73 315.68 181.555 316.39 181.555C317.01 181.555 317.55 181.68 318.01 181.93C318.48 182.18 318.855 182.495 319.135 182.875V181.69H321.25V190H319.135V188.785C318.865 189.175 318.49 189.5 318.01 189.76C317.54 190.01 316.995 190.135 316.375 190.135C315.675 190.135 315.035 189.955 314.455 189.595C313.885 189.235 313.43 188.73 313.09 188.08C312.76 187.42 312.595 186.665 312.595 185.815ZM319.135 185.845C319.135 185.335 319.035 184.9 318.835 184.54C318.635 184.17 318.365 183.89 318.025 183.7C317.685 183.5 317.32 183.4 316.93 183.4C316.54 183.4 316.18 183.495 315.85 183.685C315.52 183.875 315.25 184.155 315.04 184.525C314.84 184.885 314.74 185.315 314.74 185.815C314.74 186.315 314.84 186.755 315.04 187.135C315.25 187.505 315.52 187.79 315.85 187.99C316.19 188.19 316.55 188.29 316.93 188.29C317.32 188.29 317.685 188.195 318.025 188.005C318.365 187.805 318.635 187.525 318.835 187.165C319.035 186.795 319.135 186.355 319.135 185.845ZM322.761 185.815C322.761 184.975 322.926 184.23 323.256 183.58C323.596 182.93 324.056 182.43 324.636 182.08C325.216 181.73 325.861 181.555 326.571 181.555C327.111 181.555 327.626 181.675 328.116 181.915C328.606 182.145 328.996 182.455 329.286 182.845V178.9H331.416V190H329.286V188.77C329.026 189.18 328.661 189.51 328.191 189.76C327.721 190.01 327.176 190.135 326.556 190.135C325.856 190.135 325.216 189.955 324.636 189.595C324.056 189.235 323.596 188.73 323.256 188.08C322.926 187.42 322.761 186.665 322.761 185.815ZM329.301 185.845C329.301 185.335 329.201 184.9 329.001 184.54C328.801 184.17 328.531 183.89 328.191 183.7C327.851 183.5 327.486 183.4 327.096 183.4C326.706 183.4 326.346 183.495 326.016 183.685C325.686 183.875 325.416 184.155 325.206 184.525C325.006 184.885 324.906 185.315 324.906 185.815C324.906 186.315 325.006 186.755 325.206 187.135C325.416 187.505 325.686 187.79 326.016 187.99C326.356 188.19 326.716 188.29 327.096 188.29C327.486 188.29 327.851 188.195 328.191 188.005C328.531 187.805 328.801 187.525 329.001 187.165C329.201 186.795 329.301 186.355 329.301 185.845ZM343.787 181.57C344.807 181.57 345.627 181.885 346.247 182.515C346.877 183.135 347.192 184.005 347.192 185.125V190H345.092V185.41C345.092 184.76 344.927 184.265 344.597 183.925C344.267 183.575 343.817 183.4 343.247 183.4C342.677 183.4 342.222 183.575 341.882 183.925C341.552 184.265 341.387 184.76 341.387 185.41V190H339.287V185.41C339.287 184.76 339.122 184.265 338.792 183.925C338.462 183.575 338.012 183.4 337.442 183.4C336.862 183.4 336.402 183.575 336.062 183.925C335.732 184.265 335.567 184.76 335.567 185.41V190H333.467V181.69H335.567V182.695C335.837 182.345 336.182 182.07 336.602 181.87C337.032 181.67 337.502 181.57 338.012 181.57C338.662 181.57 339.242 181.71 339.752 181.99C340.262 182.26 340.657 182.65 340.937 183.16C341.207 182.68 341.597 182.295 342.107 182.005C342.627 181.715 343.187 181.57 343.787 181.57ZM350.249 180.7C349.879 180.7 349.569 180.585 349.319 180.355C349.079 180.115 348.959 179.82 348.959 179.47C348.959 179.12 349.079 178.83 349.319 178.6C349.569 178.36 349.879 178.24 350.249 178.24C350.619 178.24 350.924 178.36 351.164 178.6C351.414 178.83 351.539 179.12 351.539 179.47C351.539 179.82 351.414 180.115 351.164 180.355C350.924 180.585 350.619 180.7 350.249 180.7ZM351.284 181.69V190H349.184V181.69H351.284ZM357.964 181.57C358.954 181.57 359.754 181.885 360.364 182.515C360.974 183.135 361.279 184.005 361.279 185.125V190H359.179V185.41C359.179 184.75 359.014 184.245 358.684 183.895C358.354 183.535 357.904 183.355 357.334 183.355C356.754 183.355 356.294 183.535 355.954 183.895C355.624 184.245 355.459 184.75 355.459 185.41V190H353.359V181.69H355.459V182.725C355.739 182.365 356.094 182.085 356.524 181.885C356.964 181.675 357.444 181.57 357.964 181.57ZM365.721 183.415V187.435C365.721 187.715 365.786 187.92 365.916 188.05C366.056 188.17 366.286 188.23 366.606 188.23H367.581V190H366.261C364.491 190 363.606 189.14 363.606 187.42V183.415H362.616V181.69H363.606V179.635H365.721V181.69H367.581V183.415H365.721ZM372.782 190.135C371.982 190.135 371.262 189.96 370.622 189.61C369.982 189.25 369.477 188.745 369.107 188.095C368.747 187.445 368.567 186.695 368.567 185.845C368.567 184.995 368.752 184.245 369.122 183.595C369.502 182.945 370.017 182.445 370.667 182.095C371.317 181.735 372.042 181.555 372.842 181.555C373.642 181.555 374.367 181.735 375.017 182.095C375.667 182.445 376.177 182.945 376.547 183.595C376.927 184.245 377.117 184.995 377.117 185.845C377.117 186.695 376.922 187.445 376.532 188.095C376.152 188.745 375.632 189.25 374.972 189.61C374.322 189.96 373.592 190.135 372.782 190.135ZM372.782 188.305C373.162 188.305 373.517 188.215 373.847 188.035C374.187 187.845 374.457 187.565 374.657 187.195C374.857 186.825 374.957 186.375 374.957 185.845C374.957 185.055 374.747 184.45 374.327 184.03C373.917 183.6 373.412 183.385 372.812 183.385C372.212 183.385 371.707 183.6 371.297 184.03C370.897 184.45 370.697 185.055 370.697 185.845C370.697 186.635 370.892 187.245 371.282 187.675C371.682 188.095 372.182 188.305 372.782 188.305ZM383.262 181.57C384.252 181.57 385.052 181.885 385.662 182.515C386.272 183.135 386.577 184.005 386.577 185.125V190H384.477V185.41C384.477 184.75 384.312 184.245 383.982 183.895C383.652 183.535 383.202 183.355 382.632 183.355C382.052 183.355 381.592 183.535 381.252 183.895C380.922 184.245 380.757 184.75 380.757 185.41V190H378.657V181.69H380.757V182.725C381.037 182.365 381.392 182.085 381.822 181.885C382.262 181.675 382.742 181.57 383.262 181.57Z" fill="url(#paint5_linear_85_4)"/>
<defs>
<linearGradient id="paint0_linear_85_4" x1="0" y1="160.37" x2="693.209" y2="160.37" gradientUnits="userSpaceOnUse">
<stop stop-color="#7A7A7A"/>
<stop offset="1" stop-color="#434343"/>
</linearGradient>
<linearGradient id="paint1_linear_85_4" x1="346.634" y1="2.70547" x2="346.634" y2="317.889" gradientUnits="userSpaceOnUse">
<stop stop-color="#7A7A7A"/>
<stop offset="1" stop-color="#434343"/>
</linearGradient>
<linearGradient id="paint2_linear_85_4" x1="346.296" y1="0" x2="346.296" y2="10.8218" gradientUnits="userSpaceOnUse">
<stop stop-color="#7A7A7A"/>
<stop offset="1" stop-color="#434343"/>
</linearGradient>
<linearGradient id="paint3_linear_85_4" x1="346.296" y1="310.449" x2="346.296" y2="321.271" gradientUnits="userSpaceOnUse">
<stop stop-color="#7A7A7A"/>
<stop offset="1" stop-color="#434343"/>
</linearGradient>
<linearGradient id="paint4_linear_85_4" x1="345" y1="133" x2="345" y2="187" gradientUnits="userSpaceOnUse">
<stop stop-color="#626262"/>
<stop offset="1" stop-color="#1B1B1B"/>
</linearGradient>
<linearGradient id="paint5_linear_85_4" x1="345" y1="173" x2="345" y2="196" gradientUnits="userSpaceOnUse">
<stop stop-color="#626262"/>
<stop offset="1" stop-color="#1B1B1B"/>
</linearGradient>
</defs>
</svg>
